<svg width="20" height="18" viewBox="0 0 20 18" fill="none" xmlns="http://www.w3.org/2000/svg">
<path fill-rule="evenodd" clip-rule="evenodd" d="M0.399902 3.00001C0.399902 1.67452 1.47442 0.600006 2.7999 0.600006L17.1999 0.600006C18.5254 0.600006 19.5999 1.67452 19.5999 3.00001V15C19.5999 16.3255 18.5254 17.4 17.1999 17.4H2.7999C1.47442 17.4 0.399902 16.3255 0.399902 15L0.399902 3.00001ZM4.35137 4.55148C4.82 4.08285 5.5798 4.08285 6.04843 4.55148L9.64843 8.15148C10.1171 8.62011 10.1171 9.37991 9.64843 9.84853L6.04843 13.4485C5.5798 13.9172 4.82 13.9172 4.35137 13.4485C3.88274 12.9799 3.88274 12.2201 4.35137 11.7515L7.10285 9.00001L4.35137 6.24853C3.88274 5.77991 3.88274 5.02011 4.35137 4.55148ZM11.1999 11.4C10.5372 11.4 9.9999 11.9373 9.9999 12.6C9.9999 13.2627 10.5372 13.8 11.1999 13.8H14.7999C15.4626 13.8 15.9999 13.2627 15.9999 12.6C15.9999 11.9373 15.4626 11.4 14.7999 11.4H11.1999Z" fill="white"/>
</svg>
