<svg width="16" height="16" viewBox="0 0 16 16" fill="none" xmlns="http://www.w3.org/2000/svg">
<path d="M7.1999 1.60001C6.31625 1.60001 5.5999 2.31635 5.5999 3.20001V9.60001C5.5999 10.4837 6.31625 11.2 7.1999 11.2H11.9999C12.8836 11.2 13.5999 10.4837 13.5999 9.60001V5.13138C13.5999 4.70703 13.4313 4.30006 13.1313 4.00001L11.1999 2.06864C10.8998 1.76858 10.4929 1.60001 10.0685 1.60001H7.1999Z" fill="white"/>
<path d="M2.3999 6.40001C2.3999 5.51635 3.11625 4.80001 3.9999 4.80001V12.8H10.3999C10.3999 13.6837 9.68356 14.4 8.7999 14.4H3.9999C3.11625 14.4 2.3999 13.6837 2.3999 12.8V6.40001Z" fill="white"/>
</svg>
