<svg width="16" height="16" viewBox="0 0 16 16" fill="none" xmlns="http://www.w3.org/2000/svg">
<path d="M14.4 7.60001C14.4 8.26275 13.8628 8.80001 13.2 8.80001C12.5373 8.80001 12 8.26275 12 7.60001V2.80001C12 2.13727 12.5373 1.60001 13.2 1.60001C13.8628 1.60001 14.4 2.13727 14.4 2.80001V7.60001Z" fill="white"/>
<path d="M11.2 7.73334V3.38886C11.2 2.78283 10.8576 2.2288 10.3156 1.95778L10.2757 1.93784C9.83136 1.71567 9.3414 1.60001 8.84461 1.60001L4.51172 1.60001C3.74903 1.60001 3.09236 2.13834 2.94279 2.88622L1.98279 7.68622C1.78477 8.67629 2.54204 9.60001 3.55171 9.60001H6.40003V12.8C6.40003 13.6837 7.11637 14.4 8.00003 14.4C8.44186 14.4 8.80003 14.0418 8.80003 13.6V13.0667C8.80003 12.3743 9.0246 11.7006 9.44003 11.1467L10.56 9.65334C10.9755 9.09943 11.2 8.42572 11.2 7.73334Z" fill="white"/>
</svg>
