<svg width="24" height="24" viewBox="0 0 24 24" fill="none" xmlns="http://www.w3.org/2000/svg">
<path fill-rule="evenodd" clip-rule="evenodd" d="M18.3514 2.06377C18.7416 2.21021 19 2.58325 19 2.99998V6.126C20.7252 6.57004 22 8.13615 22 9.99998C22 11.8638 20.7252 13.4299 19 13.874V17C19 17.4167 18.7416 17.7898 18.3514 17.9362C17.9613 18.0826 17.5212 17.9718 17.247 17.658C16.634 16.9565 15.5484 16.2834 14.0587 15.7864C13.4275 15.5758 12.7368 15.4014 12 15.2708V19.2402C12 20.7644 10.7644 22 9.24018 22C8.07384 22 7.03342 21.2668 6.64114 20.1684L6.63872 20.1616L4.62855 14.4027C3.06483 13.5587 2 11.9047 2 9.99998C2 7.23856 4.23857 4.99998 6.99999 4.99998L8.83208 4.99998C9.53626 4.99998 10.2202 4.96173 10.876 4.88978C10.8846 4.88871 10.8933 4.88775 10.902 4.88691C12.0562 4.75857 13.1228 4.52581 14.0587 4.21359C15.5484 3.7166 16.634 3.04346 17.247 2.34198C17.5212 2.02817 17.9613 1.91732 18.3514 2.06377ZM10 6.96785C9.61591 6.98911 9.22622 6.99998 8.83208 6.99998H6.99999C5.34314 6.99998 4 8.34313 4 9.99998C4 11.2392 4.75153 12.3051 5.82767 12.7626C6.1865 12.9151 6.58204 13 6.99998 13L8.83209 13C9.22623 13 9.61591 13.0109 10 13.0321V6.96785ZM12 13.243L12 6.75696C12.9581 6.60583 13.8624 6.38742 14.6916 6.11081C15.5313 5.83068 16.3125 5.48452 17 5.07578L17 14.9242C16.3125 14.5154 15.5313 14.1693 14.6916 13.8892C13.8624 13.6125 12.9581 13.3941 12 13.243ZM19 11.7324C19.5978 11.3866 20 10.7403 20 9.99998C20 9.2597 19.5978 8.61336 19 8.26755V11.7324ZM10 15.0355C9.61804 15.0121 9.22827 15 8.83208 15L6.99997 15C6.98507 15 6.97019 14.9999 6.95532 14.9998L8.52462 19.4957C8.52494 19.4966 8.52527 19.4975 8.52559 19.4984C8.63432 19.7993 8.92002 20 9.24018 20C9.65982 20 10 19.6598 10 19.2402V15.0355Z" fill="white"/>
</svg>
