<svg width="14" height="13" viewBox="0 0 14 13" fill="none" xmlns="http://www.w3.org/2000/svg">
<path fill-rule="evenodd" clip-rule="evenodd" d="M1.40027 0.900414C1.59334 0.707349 1.90636 0.707349 2.09942 0.900414L3.92021 2.7212C4.83202 2.21227 5.88279 1.92228 7.0001 1.92228C9.83418 1.92228 12.2319 3.78509 13.038 6.35187C13.0683 6.44831 13.0683 6.55172 13.038 6.64815C12.6525 7.8756 11.9037 8.94101 10.9181 9.71911L12.5994 11.4004C12.7925 11.5935 12.7925 11.9065 12.5994 12.0996C12.4064 12.2926 12.0933 12.2926 11.9003 12.0996L1.40027 1.59957C1.20721 1.4065 1.20721 1.09348 1.40027 0.900414ZM4.65244 3.45343L5.80124 4.60223C6.14797 4.38288 6.55929 4.25562 6.99985 4.25562C8.23938 4.25562 9.24422 5.26046 9.24422 6.49999C9.24422 6.94055 9.11695 7.35186 8.8976 7.69859L10.2132 9.01424C11.0507 8.38217 11.6957 7.50947 12.0458 6.50001C11.3212 4.41039 9.33513 2.91103 7.0001 2.91103C6.15712 2.91103 5.36064 3.10608 4.65244 3.45343ZM6.53292 5.33391L8.16592 6.96691C8.22374 6.82262 8.25547 6.66512 8.25547 6.49999C8.25547 5.80653 7.69331 5.24437 6.99985 5.24437C6.83472 5.24437 6.67721 5.27609 6.53292 5.33391ZM2.64401 4.33896C2.86173 4.50373 2.90466 4.81379 2.7399 5.03151C2.40591 5.47285 2.13911 5.96739 1.95442 6.49997C2.67901 8.58959 4.66508 10.0889 7.00012 10.0889C7.34277 10.0889 7.67745 10.0567 8.00141 9.9953C8.26967 9.94443 8.52837 10.1207 8.57924 10.3889C8.63011 10.6572 8.45388 10.9159 8.18563 10.9667C7.80124 11.0396 7.40489 11.0777 7.00012 11.0777C4.16604 11.0777 1.76834 9.21489 0.962169 6.64811C0.931881 6.55167 0.931881 6.44827 0.96217 6.35183C1.18184 5.65244 1.51948 5.00569 1.95147 4.43485C2.11623 4.21713 2.42629 4.1742 2.64401 4.33896Z" fill="#2A2A2A"/>
</svg>
