<svg width="14" height="14" viewBox="0 0 14 14" fill="none" xmlns="http://www.w3.org/2000/svg">
<path fill-rule="evenodd" clip-rule="evenodd" d="M5.83366 2.33332C3.90066 2.33332 2.33366 3.90033 2.33366 5.83332C2.33366 7.76632 3.90066 9.33332 5.83366 9.33332C7.76665 9.33332 9.33366 7.76632 9.33366 5.83332C9.33366 3.90033 7.76665 2.33332 5.83366 2.33332ZM1.16699 5.83332C1.16699 3.25599 3.25633 1.16666 5.83366 1.16666C8.41099 1.16666 10.5003 3.25599 10.5003 5.83332C10.5003 6.91174 10.1345 7.90472 9.52024 8.69495L12.6628 11.8375C12.8906 12.0653 12.8906 12.4347 12.6628 12.6625C12.435 12.8903 12.0657 12.8903 11.8378 12.6625L8.69528 9.51991C7.90505 10.1342 6.91207 10.5 5.83366 10.5C3.25633 10.5 1.16699 8.41065 1.16699 5.83332Z" fill="#4E4F4F"/>
</svg>
