<svg width="16" height="16" viewBox="0 0 16 16" fill="none" xmlns="http://www.w3.org/2000/svg">
<path d="M1.6001 8.40001C1.6001 7.73726 2.13736 7.20001 2.8001 7.20001C3.46284 7.20001 4.0001 7.73726 4.0001 8.40001V13.2C4.0001 13.8627 3.46284 14.4 2.8001 14.4C2.13736 14.4 1.6001 13.8627 1.6001 13.2V8.40001Z" fill="white"/>
<path d="M4.8001 8.26667V12.6112C4.8001 13.2172 5.1425 13.7712 5.68456 14.0422L5.72443 14.0622C6.16877 14.2843 6.65873 14.4 7.15552 14.4H11.4884C12.2511 14.4 12.9078 13.8617 13.0573 13.1138L14.0173 8.31379C14.2154 7.32373 13.4581 6.40001 12.4484 6.40001H9.6001V3.20001C9.6001 2.31635 8.88375 1.60001 8.0001 1.60001C7.55827 1.60001 7.2001 1.95818 7.2001 2.40001V2.93334C7.2001 3.62572 6.97553 4.29943 6.5601 4.85334L5.4401 6.34667C5.02467 6.90058 4.8001 7.57429 4.8001 8.26667Z" fill="white"/>
</svg>
