<svg width="18" height="20" viewBox="0 0 18 20" fill="none" xmlns="http://www.w3.org/2000/svg">
<path fill-rule="evenodd" clip-rule="evenodd" d="M0.600098 18.4C0.600098 17.7373 1.13736 17.2 1.8001 17.2H16.2001C16.8628 17.2 17.4001 17.7373 17.4001 18.4C17.4001 19.0627 16.8628 19.6 16.2001 19.6H1.8001C1.13736 19.6 0.600098 19.0627 0.600098 18.4ZM4.55157 6.04852C4.08294 5.57989 4.08294 4.82009 4.55157 4.35147L8.15157 0.751466C8.37661 0.526423 8.68184 0.399994 9.0001 0.399994C9.31836 0.399994 9.62358 0.526422 9.84862 0.751466L13.4486 4.35147C13.9173 4.82009 13.9173 5.57989 13.4486 6.04852C12.98 6.51715 12.2202 6.51715 11.7516 6.04852L10.2001 4.49705L10.2001 13.6C10.2001 14.2627 9.66284 14.8 9.0001 14.8C8.33735 14.8 7.8001 14.2627 7.8001 13.6L7.8001 4.49705L6.24863 6.04852C5.78 6.51715 5.0202 6.51715 4.55157 6.04852Z" fill="white"/>
</svg>
